<svg xmlns="http://www.w3.org/2000/svg" width="310" height="310" viewBox="0 0 310 310">
<g>
<path d="M 140.00 219.89 C111.67,215.39 86.81,203.43 63.68,183.17 C53.00,173.82 48.50,168.15 49.43,165.21 C50.16,162.93 58.70,154.68 61.39,153.67 C63.56,152.85 66.39,154.47 71.57,159.50 C83.09,170.69 95.49,179.28 110.50,186.49 C124.21,193.08 128.80,194.56 143.10,197.02 C164.06,200.63 176.89,199.41 195.50,192.02 C211.34,185.73 234.87,167.11 241.19,155.87 C242.38,153.75 244.17,151.76 245.16,151.45 C248.00,150.55 260.00,159.92 260.00,163.03 C260.00,165.96 252.27,176.76 244.07,185.30 C226.61,203.50 204.77,215.18 180.12,219.52 C171.00,221.13 149.05,221.33 140.00,219.89 ZM 54.80 138.96 C52.77,137.89 49.85,135.35 48.30,133.33 C45.88,130.15 45.50,128.75 45.50,123.00 C45.50,117.56 45.96,115.67 48.00,112.65 C52.17,106.46 63.48,102.21 68.50,104.93 C69.46,105.45 70.02,105.61 71.85,105.88 C73.65,106.14 79.25,112.34 80.59,115.56 C87.11,131.17 69.80,146.88 54.80,138.96 ZM 240.24 139.35 C233.18,135.87 228.27,126.99 229.51,119.94 C232.54,102.76 255.02,98.47 264.06,113.33 C269.73,122.66 265.85,134.33 255.50,139.11 C250.58,141.38 244.56,141.48 240.24,139.35 Z" fill="rgba(0,0,0,1)"/>
</g>
</svg>