<svg xmlns="http://www.w3.org/2000/svg" width="816" height="236" viewBox="0 0 816 236">
<g>
<path d="M 85.71 158.01 C71.27,154.96 57.59,147.58 46.28,136.71 C42.83,133.40 40.00,130.17 40.00,129.54 C40.00,128.91 41.59,126.85 43.53,124.97 C46.09,122.49 47.43,121.82 48.40,122.52 C49.14,123.06 52.84,126.12 56.62,129.32 C66.83,137.95 81.00,144.61 93.23,146.53 C100.38,147.64 104.50,147.80 108.73,147.11 C122.13,144.94 133.96,138.29 143.74,127.46 L 149.96 120.58 L 152.65 122.59 C159.04,127.36 158.33,129.66 147.00,141.02 C130.78,157.29 109.84,163.09 85.71,158.01 ZM 325.15 156.95 C299.32,151.71 294.82,116.04 318.52,104.45 C330.10,98.78 345.32,101.72 353.42,111.18 C362.19,121.43 362.19,137.57 353.42,147.82 C347.14,155.16 335.23,159.00 325.15,156.95 ZM 337.31 147.79 C354.50,142.64 353.85,115.47 336.44,111.09 C324.40,108.06 313.36,116.47 313.08,128.88 C312.88,137.43 318.21,145.36 325.70,147.67 C330.70,149.22 332.48,149.24 337.31,147.79 ZM 385.15 156.97 C368.66,153.55 359.00,136.10 364.55,119.79 C369.78,104.47 389.18,96.96 404.37,104.39 C425.05,114.51 425.26,144.49 404.72,154.40 C398.70,157.31 391.39,158.27 385.15,156.97 ZM 396.52 147.89 C414.33,143.40 414.28,115.58 396.44,111.09 C384.14,107.99 373.00,116.74 373.00,129.50 C373.00,137.36 378.48,145.59 385.12,147.72 C389.66,149.17 391.35,149.19 396.52,147.89 ZM 444.16 156.96 C434.87,155.06 426.42,146.98 423.88,137.56 C422.33,131.87 423.28,121.32 425.77,116.45 C430.54,107.10 439.16,101.83 449.76,101.78 C457.34,101.74 463.00,103.67 467.25,107.74 L 470.00 110.37 L 470.00 95.19 L 470.00 80.00 L 475.00 80.00 L 480.00 80.00 L 480.00 118.50 L 480.00 157.00 L 475.00 157.00 L 470.00 157.00 L 470.00 152.81 L 470.00 148.63 L 467.25 151.26 C461.98,156.30 452.44,158.66 444.16,156.96 ZM 456.67 147.85 C474.40,143.39 474.22,115.57 456.44,111.09 C444.40,108.06 433.36,116.47 433.08,128.88 C432.89,137.13 438.00,145.04 445.19,147.65 C449.49,149.21 451.17,149.24 456.67,147.85 ZM 603.34 156.98 C593.90,155.06 585.84,148.38 582.53,139.72 C580.32,133.94 580.76,122.20 583.37,116.82 C589.94,103.31 606.69,97.70 620.40,104.41 C629.60,108.91 634.87,117.36 634.96,127.75 L 635.00 133.00 L 613.00 133.00 C588.83,133.00 589.32,132.86 592.50,139.00 C597.88,149.40 615.50,152.11 624.53,143.91 C626.51,142.11 626.61,142.14 629.22,145.41 L 631.89 148.75 L 629.68 150.83 C624.36,155.83 611.96,158.72 603.34,156.98 ZM 625.61 124.42 C625.27,123.55 625.00,122.20 625.00,121.42 C625.00,118.99 618.04,112.17 614.30,110.93 C606.01,108.20 596.10,112.05 592.64,119.34 C589.41,126.15 589.04,126.00 608.61,126.00 C624.25,126.00 626.15,125.82 625.61,124.42 ZM 658.67 156.60 C648.30,153.74 640.96,145.59 638.95,134.67 C636.06,119.02 645.48,104.91 660.71,102.06 C667.52,100.79 675.64,102.37 680.75,105.97 L 685.00 108.96 L 685.00 94.48 L 685.00 80.00 L 690.00 80.00 L 695.00 80.00 L 695.00 118.50 L 695.00 157.00 L 690.50 157.00 L 686.00 157.00 L 686.00 152.91 L 686.00 148.82 L 682.75 151.56 C676.39,156.92 667.00,158.89 658.67,156.60 ZM 675.97 146.52 C681.28,143.77 684.37,138.51 684.82,131.48 C685.33,123.56 683.80,118.91 679.45,115.09 C667.97,105.01 650.44,111.64 649.21,126.53 C648.57,134.22 649.58,138.19 653.27,142.41 C658.81,148.75 668.32,150.47 675.97,146.52 ZM 740.56 156.91 C725.28,153.21 722.01,134.99 735.41,128.10 C739.39,126.04 741.92,125.62 752.65,125.21 L 765.22 124.72 L 764.63 121.13 C763.35,113.24 756.94,109.33 747.09,110.44 C744.12,110.78 739.56,112.12 736.97,113.42 L 732.27 115.78 L 730.56 112.20 C728.88,108.68 728.89,108.59 731.18,106.81 C737.24,102.08 754.81,100.22 762.62,103.48 C773.07,107.85 775.00,113.33 775.00,138.68 L 775.00 157.00 L 770.00 157.00 C765.06,157.00 765.00,156.96 765.00,153.85 C765.00,150.88 764.89,150.79 763.21,152.31 C758.74,156.36 747.63,158.61 740.56,156.91 ZM 756.60 148.09 C761.73,145.77 765.00,141.30 765.00,136.64 L 765.00 133.09 L 758.25 132.80 C743.18,132.14 737.00,134.49 737.00,140.89 C737.00,148.53 747.30,152.32 756.60,148.09 ZM 216.24 120.75 L 216.50 84.50 L 220.60 84.20 L 224.70 83.90 L 239.93 109.55 C253.44,132.30 255.31,135.00 256.41,133.35 C257.09,132.33 263.85,120.81 271.44,107.75 L 285.22 84.00 L 289.61 84.00 L 294.00 84.00 L 294.00 120.50 L 294.00 157.00 L 289.02 157.00 L 284.03 157.00 L 283.77 130.75 L 283.50 104.50 L 270.53 126.25 C259.08,145.45 257.26,148.00 255.02,148.00 C252.79,148.00 250.96,145.44 239.50,126.28 L 226.50 104.55 L 226.23 130.78 L 225.97 157.00 L 220.97 157.00 L 215.98 157.00 L 216.24 120.75 ZM 494.00 120.50 L 494.00 84.00 L 498.30 84.00 L 502.59 84.00 L 517.76 109.62 L 532.93 135.24 L 535.21 131.42 C536.47,129.32 543.17,117.90 550.11,106.05 L 562.72 84.50 L 566.73 84.20 C569.91,83.96 570.83,84.27 571.18,85.70 C571.43,86.69 571.75,103.14 571.91,122.25 L 572.19 157.00 L 567.09 157.00 L 562.00 157.00 L 561.88 148.75 C561.81,144.21 561.47,132.62 561.13,123.00 L 560.50 105.50 L 548.00 126.73 C536.81,145.75 535.23,147.97 532.88,147.98 C530.53,148.00 528.94,145.78 517.38,126.48 L 504.50 104.95 L 504.23 130.98 L 503.97 157.00 L 498.98 157.00 L 494.00 157.00 L 494.00 120.50 ZM 708.00 129.50 L 708.00 102.00 L 713.00 102.00 L 718.00 102.00 L 718.00 129.50 L 718.00 157.00 L 713.00 157.00 L 708.00 157.00 L 708.00 129.50 ZM 41.11 112.10 C36.84,108.11 36.75,102.55 40.90,98.11 C48.50,89.98 61.95,99.41 56.88,109.32 C53.67,115.60 46.25,116.91 41.11,112.10 ZM 144.11 112.10 C139.79,108.06 139.71,102.14 143.92,97.92 C152.19,89.66 165.90,100.45 159.30,110.03 C156.66,113.85 154.81,114.93 150.86,114.97 C148.19,114.99 146.38,114.22 144.11,112.10 ZM 709.40 90.23 C707.07,88.68 705.98,85.19 706.98,82.55 C709.50,75.91 720.00,78.24 720.00,85.43 C720.00,89.33 712.87,92.55 709.40,90.23 Z" fill="rgba(0,0,0,1)"/>
</g>
</svg>